<svg width="48" height="40" viewBox="0 0 48 40" fill="none" xmlns="http://www.w3.org/2000/svg">
<path d="M28.5001 17.4001L19.5001 12.2101" stroke="#737791" stroke-width="2" stroke-linecap="round" stroke-linejoin="round"/>
<path d="M33.0001 24.0001V16.0001C32.9998 15.6494 32.9072 15.3049 32.7317 15.0013C32.5561 14.6976 32.3039 14.4455 32.0001 14.2701L25.0001 10.2701C24.6961 10.0946 24.3512 10.0022 24.0001 10.0022C23.649 10.0022 23.3042 10.0946 23.0001 10.2701L16.0001 14.2701C15.6964 14.4455 15.4441 14.6976 15.2686 15.0013C15.0931 15.3049 15.0005 15.6494 15.0001 16.0001V24.0001C15.0005 24.3508 15.0931 24.6953 15.2686 24.999C15.4441 25.3026 15.6964 25.5548 16.0001 25.7301L23.0001 29.7301C23.3042 29.9057 23.649 29.9981 24.0001 29.9981C24.3512 29.9981 24.6961 29.9057 25.0001 29.7301L32.0001 25.7301C32.3039 25.5548 32.5561 25.3026 32.7317 24.999C32.9072 24.6953 32.9998 24.3508 33.0001 24.0001Z" stroke="#737791" stroke-width="2" stroke-linecap="round" stroke-linejoin="round"/>
<path d="M15.2701 14.9601L24.0001 20.0101L32.7301 14.9601" stroke="#737791" stroke-width="2" stroke-linecap="round" stroke-linejoin="round"/>
<path d="M24.0001 30.0801V20.0001" stroke="#737791" stroke-width="2" stroke-linecap="round" stroke-linejoin="round"/>
</svg>
