<svg width="48" height="40" viewBox="0 0 48 40" fill="none" xmlns="http://www.w3.org/2000/svg">
<path d="M26.0001 10.0001H18.0001C17.4697 10.0001 16.961 10.2108 16.5859 10.5859C16.2108 10.961 16.0001 11.4697 16.0001 12.0001V28.0001C16.0001 28.5306 16.2108 29.0393 16.5859 29.4143C16.961 29.7894 17.4697 30.0001 18.0001 30.0001H30.0001C30.5306 30.0001 31.0393 29.7894 31.4143 29.4143C31.7894 29.0393 32.0001 28.5306 32.0001 28.0001V16.0001L26.0001 10.0001Z" stroke="#737791" stroke-width="2" stroke-linecap="round" stroke-linejoin="round"/>
<path d="M28.0001 25.0001H20.0001" stroke="#737791" stroke-width="2" stroke-linecap="round" stroke-linejoin="round"/>
<path d="M28.0001 21.0001H20.0001" stroke="#737791" stroke-width="2" stroke-linecap="round" stroke-linejoin="round"/>
<path d="M22.0001 17.0001H21.0001H20.0001" stroke="#737791" stroke-width="2" stroke-linecap="round" stroke-linejoin="round"/>
<path d="M26.0001 10.0001V16.0001H32.0001" stroke="#737791" stroke-width="2" stroke-linecap="round" stroke-linejoin="round"/>
</svg>
