<svg width="14" height="14" viewBox="0 0 14 14" fill="none" xmlns="http://www.w3.org/2000/svg">
<path d="M11.7728 1.37086C10.0907 -0.311283 7.35138 -0.311283 5.67103 1.37086L1.01031 6.028C0.979955 6.05836 0.963884 6.09943 0.963884 6.14229C0.963884 6.18515 0.979955 6.22622 1.01031 6.25658L1.66924 6.9155C1.69936 6.94549 1.74013 6.96233 1.78263 6.96233C1.82514 6.96233 1.86591 6.94549 1.89603 6.9155L6.55674 2.25836C7.13531 1.67979 7.90496 1.36193 8.72281 1.36193C9.54067 1.36193 10.3103 1.67979 10.8871 2.25836C11.4657 2.83693 11.7835 3.60657 11.7835 4.42265C11.7835 5.2405 11.4657 6.00836 10.8871 6.58693L6.1371 11.3351L5.36746 12.1048C4.64781 12.8244 3.47817 12.8244 2.75853 12.1048C2.41031 11.7566 2.21924 11.2941 2.21924 10.8012C2.21924 10.3084 2.41031 9.84586 2.75853 9.49765L7.47103 4.78693C7.59067 4.66907 7.74781 4.603 7.91567 4.603H7.91746C8.08531 4.603 8.24067 4.66907 8.35853 4.78693C8.47817 4.90657 8.54246 5.06372 8.54246 5.23157C8.54246 5.39765 8.47638 5.55479 8.35853 5.67265L4.50674 9.52086C4.47638 9.55122 4.46031 9.59229 4.46031 9.63515C4.46031 9.678 4.47638 9.71908 4.50674 9.74943L5.16567 10.4084C5.19579 10.4383 5.23656 10.4552 5.27906 10.4552C5.32156 10.4552 5.36234 10.4383 5.39246 10.4084L9.24245 6.55836C9.59781 6.203 9.79246 5.73158 9.79246 5.22979C9.79246 4.728 9.59603 4.25479 9.24245 3.90122C8.50853 3.16729 7.31567 3.16907 6.58174 3.90122L6.1246 4.36015L1.87103 8.61193C1.58233 8.89893 1.35349 9.24039 1.19777 9.61651C1.04205 9.99263 0.96255 10.3959 0.963884 10.803C0.963884 11.6298 1.2871 12.4066 1.87103 12.9905C2.47638 13.5941 3.26924 13.8959 4.0621 13.8959C4.85496 13.8959 5.64781 13.5941 6.25138 12.9905L11.7728 7.47265C12.5853 6.65836 13.0353 5.57443 13.0353 4.42265C13.0371 3.26907 12.5871 2.18515 11.7728 1.37086Z" fill="black" fill-opacity="0.45"/>
</svg>
